# xmcd
# 
# Track frame offsets:
#     150
#     17501
#     36097
#     53914
#     69181
#     87764
#     105377
#     123684
#     149482
#     170978
#     193146
#     219372
#     239915
#     257494
#     279269
#     295420
#     316882
#     333570
# 
# Disc length: 4741
# 
# Revision: 3
# Processed by: cddbd v1.5.2PL0 Copyright (c) Steve Scherf et al.
# Submitted via: fre:ac v1.0.31
# 
DISCID=12128312
DTITLE=The Black Sorrows - The Essential Black Sorrows
DYEAR=2007
DGENRE=Rock
TTITLE0=Hold on to me
TTITLE1=The chosen ones
TTITLE2=Chained to the wheel
TTITLE3=The crack up
TTITLE4=Fire down below
TTITLE5=Harley and Rose
TTITLE6=Never let me go
TTITLE7=Hold it up to the mirror
TTITLE8=Carried by the light
TTITLE9=Better times
TTITLE10=Ain't love the strangest thing
TTITLE11=Come on, come on
TTITLE12=Sweet inspiration
TTITLE13=Too long gone
TTITLE14=Stir it up
TTITLE15=Snake skin shoes
TTITLE16=Last one standing for ya
TTITLE17=Lucky charm
EXTD=
EXTT0=
EXTT1=
EXTT2=
EXTT3=
EXTT4=
EXTT5=
EXTT6=
EXTT7=
EXTT8=
EXTT9=
EXTT10=
EXTT11=
EXTT12=
EXTT13=
EXTT14=
EXTT15=
EXTT16=
EXTT17=
PLAYORDER=
